<svg width="21" height="21" viewBox="0 0 21 21" fill="none" xmlns="http://www.w3.org/2000/svg">
<g clip-path="url(#clip0_9_16271)">
<path d="M10.3099 20.2C15.8328 20.2 20.3099 15.7228 20.3099 10.2C20.3099 4.6771 15.8328 0.199951 10.3099 0.199951C4.78709 0.199951 0.309937 4.6771 0.309937 10.2C0.309937 15.7228 4.78709 20.2 10.3099 20.2Z" fill="black"/>
<path d="M12.8741 12.1752C12.3493 12.9317 11.4821 13.377 10.5616 13.3627C9.00827 13.3627 7.74908 12.1035 7.74908 10.5502C7.74908 8.99693 9.00827 7.73774 10.5616 7.73774C11.4756 7.75047 12.3312 8.18979 12.8741 8.92524L14.6866 7.11274C13.1136 5.21997 10.4446 4.65907 8.24272 5.75854C6.04088 6.85802 4.8856 9.32854 5.45349 11.7232C6.02137 14.1179 8.163 15.8066 10.6241 15.8002C12.2023 15.8052 13.6971 15.0923 14.6866 13.8627L12.8741 12.1752Z" fill="white"/>
</g>
<defs>
<clipPath id="clip0_9_16271">
<rect width="20" height="20" fill="white" transform="translate(0.309937 0.199951)"/>
</clipPath>
</defs>
</svg>
