<svg width="30" height="31" viewBox="0 0 30 31" fill="none" xmlns="http://www.w3.org/2000/svg">
<g filter="url(#filter0_d_9_16119)">
<rect x="5" y="5.88" width="18" height="18" rx="9" fill="white"/>
<g clip-path="url(#clip0_9_16119)">
<path d="M13.1649 13.5985C12.971 14.1167 12.7802 14.5762 12.6257 15.048C12.132 16.5558 11.6202 18.0583 11.1775 19.582C10.9215 20.4629 11.283 21.0583 12.0427 21.1671C12.3193 21.2067 12.6182 21.2052 12.8888 21.1423C14.5587 20.7545 15.3002 19.3751 16.0625 18.0234C15.899 18.145 15.7677 18.3 15.6289 18.4479C15.2013 18.9032 14.7258 19.2921 14.1327 19.4987C14.0357 19.5322 13.8919 19.5167 13.8091 19.4621C13.7652 19.4333 13.7889 19.2659 13.8136 19.1695C13.8459 19.0418 13.9095 18.9218 13.9595 18.7981C14.6087 17.193 15.2664 15.5916 15.8995 13.9798C16.0091 13.7006 16.0813 13.3709 16.0525 13.0773C15.9995 12.5406 15.4457 12.1615 14.7673 12.1759C13.006 12.213 11.7369 13.1041 10.8333 14.6C10.8 14.6551 10.8 14.7309 10.7692 14.8612C11.5214 14.2951 12.1427 13.6098 13.1649 13.5985ZM17.0437 10.1111C17.0437 11.0455 16.3012 11.8032 15.3849 11.8032C14.4692 11.8032 13.7267 11.0455 13.7267 10.1111C13.7267 9.1762 14.4692 8.41846 15.3849 8.41846C16.3012 8.41846 17.0437 9.17618 17.0437 10.1111Z" fill="#37003C"/>
</g>
</g>
<defs>
<filter id="filter0_d_9_16119" x="0" y="0.880005" width="30" height="30" filterUnits="userSpaceOnUse" color-interpolation-filters="sRGB">
<feFlood flood-opacity="0" result="BackgroundImageFix"/>
<feColorMatrix in="SourceAlpha" type="matrix" values="0 0 0 0 0 0 0 0 0 0 0 0 0 0 0 0 0 0 127 0" result="hardAlpha"/>
<feMorphology radius="4" operator="erode" in="SourceAlpha" result="effect1_dropShadow_9_16119"/>
<feOffset dx="1" dy="1"/>
<feGaussianBlur stdDeviation="5"/>
<feComposite in2="hardAlpha" operator="out"/>
<feColorMatrix type="matrix" values="0 0 0 0 0 0 0 0 0 0 0 0 0 0 0 0 0 0 0.5 0"/>
<feBlend mode="normal" in2="BackgroundImageFix" result="effect1_dropShadow_9_16119"/>
<feBlend mode="normal" in="SourceGraphic" in2="effect1_dropShadow_9_16119" result="shape"/>
</filter>
<clipPath id="clip0_9_16119">
<rect width="14" height="14" fill="white" transform="translate(7 7.88)"/>
</clipPath>
</defs>
</svg>
