<svg width="880" height="834" viewBox="0 0 880 834" fill="none" xmlns="http://www.w3.org/2000/svg">
<g clip-path="url(#clip0_24_3)">
<path d="M96.6927 28.8018L-165.349 890.001H1044.35L779.329 28.8018H96.6927Z" fill="#01BA5C"/>
<path fill-rule="evenodd" clip-rule="evenodd" d="M-62.0406 626.5H936.643L971.763 748.794H-100.215L-62.0406 626.5Z" fill="#00AE55"/>
<path fill-rule="evenodd" clip-rule="evenodd" d="M-36.5825 537.305H911.243L937.4 626.5H-62.743L-36.5825 537.305Z" fill="#01BA5C"/>
<path fill-rule="evenodd" clip-rule="evenodd" d="M-12.7634 456.082H888.688L913.617 537.305H-37.0425L-12.7634 456.082Z" fill="#00AE55"/>
<path fill-rule="evenodd" clip-rule="evenodd" d="M8.95963 382.333H866.298L887.685 456.082H-12.4769L8.95963 382.333Z" fill="#01BA5C"/>
<path fill-rule="evenodd" clip-rule="evenodd" d="M27.4642 315.063H847.033L866.642 382.333H9.39868L27.4642 315.063Z" fill="#00AE55"/>
<path fill-rule="evenodd" clip-rule="evenodd" d="M45.5327 253.772H829.096L847.179 315.063H28.2607L45.5327 253.772Z" fill="#01BA5C"/>
<path fill-rule="evenodd" clip-rule="evenodd" d="M62.3318 197.962H814.315L830.733 253.772H46.1412L62.3318 197.962Z" fill="#00AE55"/>
<path fill-rule="evenodd" clip-rule="evenodd" d="M77.1416 147.136H798.001L811.442 197.962H63.8975L77.1416 147.136Z" fill="#01BA5C"/>
<path d="M90.5865 100.794H786.76L799.74 147.136H77.7959L90.5865 100.794Z" fill="#00AE55"/>
<path fill-rule="evenodd" clip-rule="evenodd" d="M102.904 57.9399H773.014L784.398 100.794H91.389L102.904 57.9399Z" fill="#01BA5C"/>
<path fill-rule="evenodd" clip-rule="evenodd" d="M102.904 57.9399H773.014L784.398 100.794H91.389L102.904 57.9399Z" fill="#01BA5C"/>
<path opacity="0.102" d="M345.136 28.8008L360.028 57.4424H516.386L531.278 28.8008H345.136Z" fill="black"/>
<path d="M365.265 2.38577L368.846 4.42953V8.51707L365.265 10.5608L361.683 8.51707V4.42953L365.265 2.38577ZM365.265 1.88525L361.285 4.17928V8.76732L365.265 11.0613L369.244 8.76732V4.17928L365.265 1.88525Z" fill="#CECECE"/>
<path d="M372.825 2.38577L376.407 4.42953V8.51707L372.825 10.5608L369.244 8.51707V4.42953L372.825 2.38577ZM372.825 1.88525L368.846 4.17928V8.76732L372.825 11.0613L376.805 8.76732V4.17928L372.825 1.88525Z" fill="#CECECE"/>
<path d="M380.386 2.38577L383.968 4.42953V8.51707L380.386 10.5608L376.805 8.51707V4.42953L380.386 2.38577ZM380.386 1.88525L376.407 4.17928V8.76732L380.386 11.0613L384.366 8.76732V4.17928L380.386 1.88525Z" fill="#CECECE"/>
<path d="M387.947 2.38577L391.528 4.42953V8.51707L387.947 10.5608L384.366 8.51707V4.42953L387.947 2.38577ZM387.947 1.88525L383.968 4.17928V8.76732L387.947 11.0613L391.926 8.76732V4.17928L387.947 1.88525Z" fill="#CECECE"/>
<path d="M395.508 2.38577L399.089 4.42953V8.51707L395.508 10.5608L391.926 8.51707V4.42953L395.508 2.38577ZM395.508 1.88525L391.528 4.17928V8.76732L395.508 11.0613L399.487 8.76732V4.17928L395.508 1.88525Z" fill="#CECECE"/>
<path d="M403.069 2.38577L406.65 4.42953V8.51707L403.069 10.5608L399.487 8.51707V4.42953L403.069 2.38577ZM403.069 1.88525L399.089 4.17928V8.76732L403.069 11.0613L407.048 8.76732V4.17928L403.069 1.88525Z" fill="#CECECE"/>
<path d="M410.629 2.38577L414.211 4.42953V8.51707L410.629 10.5608L407.048 8.51707V4.42953L410.629 2.38577ZM410.629 1.88525L406.65 4.17928V8.76732L410.629 11.0613L414.609 8.76732V4.17928L410.629 1.88525Z" fill="#CECECE"/>
<path d="M418.19 2.38577L421.772 4.42953V8.51707L418.19 10.5608L414.609 8.51707V4.42953L418.19 2.38577ZM418.19 1.88525L414.211 4.17928V8.76732L418.19 11.0613L422.17 8.76732V4.17928L418.19 1.88525Z" fill="#CECECE"/>
<path d="M425.751 2.38577L429.332 4.42953V8.51707L425.751 10.5608L422.17 8.51707V4.42953L425.751 2.38577ZM425.751 1.88525L421.772 4.17928V8.76732L425.751 11.0613L429.73 8.76732V4.17928L425.751 1.88525Z" fill="#CECECE"/>
<path d="M433.312 2.38577L436.893 4.42953V8.51707L433.312 10.5608L429.73 8.51707V4.42953L433.312 2.38577ZM433.312 1.88525L429.332 4.17928V8.76732L433.312 11.0613L437.291 8.76732V4.17928L433.312 1.88525Z" fill="#CECECE"/>
<path d="M440.873 2.38577L444.454 4.42953V8.51707L440.873 10.5608L437.291 8.51707V4.42953L440.873 2.38577ZM440.873 1.88525L436.893 4.17928V8.76732L440.873 11.0613L444.852 8.76732V4.17928L440.873 1.88525Z" fill="#CECECE"/>
<path d="M448.433 2.38577L452.015 4.42953V8.51707L448.433 10.5608L444.852 8.51707V4.42953L448.433 2.38577ZM448.433 1.88525L444.454 4.17928V8.76732L448.433 11.0613L452.413 8.76732V4.17928L448.433 1.88525Z" fill="#CECECE"/>
<path d="M455.994 2.38577L459.576 4.42953V8.51707L455.994 10.5608L452.413 8.51707V4.42953L455.994 2.38577ZM455.994 1.88525L452.015 4.17928V8.76732L455.994 11.0613L459.973 8.76732V4.17928L455.994 1.88525Z" fill="#CECECE"/>
<path d="M463.555 2.38577L467.136 4.42953V8.51707L463.555 10.5608L459.973 8.51707V4.42953L463.555 2.38577ZM463.555 1.88525L459.576 4.17928V8.76732L463.555 11.0613L467.534 8.76732V4.17928L463.555 1.88525Z" fill="#CECECE"/>
<path d="M471.116 2.38577L474.697 4.42953V8.51707L471.116 10.5608L467.534 8.51707V4.42953L471.116 2.38577ZM471.116 1.88525L467.136 4.17928V8.76732L471.116 11.0613L475.095 8.76732V4.17928L471.116 1.88525Z" fill="#CECECE"/>
<path d="M478.677 2.38577L482.258 4.42953V8.51707L478.677 10.5608L475.095 8.51707V4.42953L478.677 2.38577ZM478.677 1.88525L474.697 4.17928V8.76732L478.677 11.0613L482.656 8.76732V4.17928L478.677 1.88525Z" fill="#CECECE"/>
<path d="M486.237 2.38577L489.819 4.42953V8.51707L486.237 10.5608L482.656 8.51707V4.42953L486.237 2.38577ZM486.237 1.88525L482.258 4.17928V8.76732L486.237 11.0613L490.217 8.76732V4.17928L486.237 1.88525Z" fill="#CECECE"/>
<path d="M493.798 2.38577L497.38 4.42953V8.51707L493.798 10.5608L490.217 8.51707V4.42953L493.798 2.38577ZM493.798 1.88525L489.819 4.17928V8.76732L493.798 11.0613L497.777 8.76732V4.17928L493.798 1.88525Z" fill="#CECECE"/>
<path d="M501.359 2.38577L504.94 4.42953V8.51707L501.359 10.5608L497.777 8.51707V4.42953L501.359 2.38577ZM501.359 1.88525L497.38 4.17928V8.76732L501.359 11.0613L505.338 8.76732V4.17928L501.359 1.88525Z" fill="#CECECE"/>
<path d="M508.92 2.38577L512.501 4.42953V8.51707L508.92 10.5608L505.338 8.51707V4.42953L508.92 2.38577ZM508.92 1.88525L504.94 4.17928V8.76732L508.92 11.0613L512.899 8.76732V4.17928L508.92 1.88525Z" fill="#CECECE"/>
<path d="M369.045 9.05939L372.626 11.1032V15.1907L369.045 17.2345L365.464 15.1907V11.1032L369.045 9.05939ZM369.045 8.60059L365.066 10.8946V15.4827L369.045 17.7767L373.024 15.4827V10.8946L369.045 8.60059Z" fill="#CECECE"/>
<path d="M376.606 9.05939L380.187 11.1032V15.1907L376.606 17.2345L373.024 15.1907V11.1032L376.606 9.05939ZM376.606 8.60059L372.626 10.8946V15.4827L376.606 17.7767L380.585 15.4827V10.8946L376.606 8.60059Z" fill="#CECECE"/>
<path d="M384.167 9.05939L387.748 11.1032V15.1907L384.167 17.2345L380.585 15.1907V11.1032L384.167 9.05939ZM384.167 8.60059L380.187 10.8946V15.4827L384.167 17.7767L388.146 15.4827V10.8946L384.167 8.60059Z" fill="#CECECE"/>
<path d="M391.727 9.05939L395.309 11.1032V15.1907L391.727 17.2345L388.146 15.1907V11.1032L391.727 9.05939ZM391.727 8.60059L387.748 10.8946V15.4827L391.727 17.7767L395.707 15.4827V10.8946L391.727 8.60059Z" fill="#CECECE"/>
<path d="M399.288 9.05939L402.87 11.1032V15.1907L399.288 17.2345L395.707 15.1907V11.1032L399.288 9.05939ZM399.288 8.60059L395.309 10.8946V15.4827L399.288 17.7767L403.268 15.4827V10.8946L399.288 8.60059Z" fill="#CECECE"/>
<path d="M406.849 9.05939L410.43 11.1032V15.1907L406.849 17.2345L403.268 15.1907V11.1032L406.849 9.05939ZM406.849 8.60059L402.87 10.8946V15.4827L406.849 17.7767L410.828 15.4827V10.8946L406.849 8.60059Z" fill="#CECECE"/>
<path d="M414.41 9.05939L417.991 11.1032V15.1907L414.41 17.2345L410.828 15.1907V11.1032L414.41 9.05939ZM414.41 8.60059L410.43 10.8946V15.4827L414.41 17.7767L418.389 15.4827V10.8946L414.41 8.60059Z" fill="#CECECE"/>
<path d="M421.971 9.05939L425.552 11.1032V15.1907L421.971 17.2345L418.389 15.1907V11.1032L421.971 9.05939ZM421.971 8.60059L417.991 10.8946V15.4827L421.971 17.7767L425.95 15.4827V10.8946L421.971 8.60059Z" fill="#CECECE"/>
<path d="M429.531 9.05939L433.113 11.1032V15.1907L429.531 17.2345L425.95 15.1907V11.1032L429.531 9.05939ZM429.531 8.60059L425.552 10.8946V15.4827L429.531 17.7767L433.511 15.4827V10.8946L429.531 8.60059Z" fill="#CECECE"/>
<path d="M437.092 9.05939L440.674 11.1032V15.1907L437.092 17.2345L433.511 15.1907V11.1032L437.092 9.05939ZM437.092 8.60059L433.113 10.8946V15.4827L437.092 17.7767L441.072 15.4827V10.8946L437.092 8.60059Z" fill="#CECECE"/>
<path d="M444.653 9.05939L448.234 11.1032V15.1907L444.653 17.2345L441.072 15.1907V11.1032L444.653 9.05939ZM444.653 8.60059L440.674 10.8946V15.4827L444.653 17.7767L448.632 15.4827V10.8946L444.653 8.60059Z" fill="#CECECE"/>
<path d="M452.214 9.05939L455.795 11.1032V15.1907L452.214 17.2345L448.632 15.1907V11.1032L452.214 9.05939ZM452.214 8.60059L448.234 10.8946V15.4827L452.214 17.7767L456.193 15.4827V10.8946L452.214 8.60059Z" fill="#CECECE"/>
<path d="M459.775 9.05939L463.356 11.1032V15.1907L459.775 17.2345L456.193 15.1907V11.1032L459.775 9.05939ZM459.775 8.60059L455.795 10.8946V15.4827L459.775 17.7767L463.754 15.4827V10.8946L459.775 8.60059Z" fill="#CECECE"/>
<path d="M467.335 9.05939L470.917 11.1032V15.1907L467.335 17.2345L463.754 15.1907V11.1032L467.335 9.05939ZM467.335 8.60059L463.356 10.8946V15.4827L467.335 17.7767L471.315 15.4827V10.8946L467.335 8.60059Z" fill="#CECECE"/>
<path d="M474.896 9.05939L478.478 11.1032V15.1907L474.896 17.2345L471.315 15.1907V11.1032L474.896 9.05939ZM474.896 8.60059L470.917 10.8946V15.4827L474.896 17.7767L478.875 15.4827V10.8946L474.896 8.60059Z" fill="#CECECE"/>
<path d="M482.457 9.05939L486.038 11.1032V15.1907L482.457 17.2345L478.875 15.1907V11.1032L482.457 9.05939ZM482.457 8.60059L478.477 10.8946V15.4827L482.457 17.7767L486.436 15.4827V10.8946L482.457 8.60059Z" fill="#CECECE"/>
<path d="M490.018 9.05939L493.599 11.1032V15.1907L490.018 17.2345L486.436 15.1907V11.1032L490.018 9.05939ZM490.018 8.60059L486.038 10.8946V15.4827L490.018 17.7767L493.997 15.4827V10.8946L490.018 8.60059Z" fill="#CECECE"/>
<path d="M497.578 9.05939L501.16 11.1032V15.1907L497.578 17.2345L493.997 15.1907V11.1032L497.578 9.05939ZM497.578 8.60059L493.599 10.8946V15.4827L497.578 17.7767L501.558 15.4827V10.8946L497.578 8.60059Z" fill="#CECECE"/>
<path d="M505.139 9.05939L508.721 11.1032V15.1907L505.139 17.2345L501.558 15.1907V11.1032L505.139 9.05939ZM505.139 8.60059L501.16 10.8946V15.4827L505.139 17.7767L509.119 15.4827V10.8946L505.139 8.60059Z" fill="#CECECE"/>
<path d="M512.7 9.05939L516.281 11.1032V15.1907L512.7 17.2345L509.119 15.1907V11.1032L512.7 9.05939ZM512.7 8.60059L508.721 10.8946V15.4827L512.7 17.7767L516.679 15.4827V10.8946L512.7 8.60059Z" fill="#CECECE"/>
<path d="M365.265 15.8162L368.846 17.86V21.9475L365.265 23.9913L361.683 21.9475V17.86L365.265 15.8162ZM365.265 15.3574L361.285 17.6514V22.2395L365.265 24.5335L369.244 22.2395V17.6514L365.265 15.3574Z" fill="#CECECE"/>
<path d="M372.825 15.8162L376.407 17.86V21.9475L372.825 23.9913L369.244 21.9475V17.86L372.825 15.8162ZM372.825 15.3574L368.846 17.6514V22.2395L372.825 24.5335L376.805 22.2395V17.6514L372.825 15.3574Z" fill="#CECECE"/>
<path d="M380.386 15.8162L383.968 17.86V21.9475L380.386 23.9913L376.805 21.9475V17.86L380.386 15.8162ZM380.386 15.3574L376.407 17.6514V22.2395L380.386 24.5335L384.366 22.2395V17.6514L380.386 15.3574Z" fill="#CECECE"/>
<path d="M387.947 15.8162L391.528 17.86V21.9475L387.947 23.9913L384.366 21.9475V17.86L387.947 15.8162ZM387.947 15.3574L383.968 17.6514V22.2395L387.947 24.5335L391.926 22.2395V17.6514L387.947 15.3574Z" fill="#CECECE"/>
<path d="M395.508 15.8162L399.089 17.86V21.9475L395.508 23.9913L391.926 21.9475V17.86L395.508 15.8162ZM395.508 15.3574L391.528 17.6514V22.2395L395.508 24.5335L399.487 22.2395V17.6514L395.508 15.3574Z" fill="#CECECE"/>
<path d="M403.069 15.8162L406.65 17.86V21.9475L403.069 23.9913L399.487 21.9475V17.86L403.069 15.8162ZM403.069 15.3574L399.089 17.6514V22.2395L403.069 24.5335L407.048 22.2395V17.6514L403.069 15.3574Z" fill="#CECECE"/>
<path d="M410.629 15.8162L414.211 17.86V21.9475L410.629 23.9913L407.048 21.9475V17.86L410.629 15.8162ZM410.629 15.3574L406.65 17.6514V22.2395L410.629 24.5335L414.609 22.2395V17.6514L410.629 15.3574Z" fill="#CECECE"/>
<path d="M418.19 15.8162L421.772 17.86V21.9475L418.19 23.9913L414.609 21.9475V17.86L418.19 15.8162ZM418.19 15.3574L414.211 17.6514V22.2395L418.19 24.5335L422.17 22.2395V17.6514L418.19 15.3574Z" fill="#CECECE"/>
<path d="M425.751 15.8162L429.332 17.86V21.9475L425.751 23.9913L422.17 21.9475V17.86L425.751 15.8162ZM425.751 15.3574L421.772 17.6514V22.2395L425.751 24.5335L429.73 22.2395V17.6514L425.751 15.3574Z" fill="#CECECE"/>
<path d="M433.312 15.8162L436.893 17.86V21.9475L433.312 23.9913L429.73 21.9475V17.86L433.312 15.8162ZM433.312 15.3574L429.332 17.6514V22.2395L433.312 24.5335L437.291 22.2395V17.6514L433.312 15.3574Z" fill="#CECECE"/>
<path d="M440.873 15.8162L444.454 17.86V21.9475L440.873 23.9913L437.291 21.9475V17.86L440.873 15.8162ZM440.873 15.3574L436.893 17.6514V22.2395L440.873 24.5335L444.852 22.2395V17.6514L440.873 15.3574Z" fill="#CECECE"/>
<path d="M448.433 15.8162L452.015 17.86V21.9475L448.433 23.9913L444.852 21.9475V17.86L448.433 15.8162ZM448.433 15.3574L444.454 17.6514V22.2395L448.433 24.5335L452.413 22.2395V17.6514L448.433 15.3574Z" fill="#CECECE"/>
<path d="M455.994 15.8162L459.576 17.86V21.9475L455.994 23.9913L452.413 21.9475V17.86L455.994 15.8162ZM455.994 15.3574L452.015 17.6514V22.2395L455.994 24.5335L459.973 22.2395V17.6514L455.994 15.3574Z" fill="#CECECE"/>
<path d="M463.555 15.8162L467.136 17.86V21.9475L463.555 23.9913L459.973 21.9475V17.86L463.555 15.8162ZM463.555 15.3574L459.576 17.6514V22.2395L463.555 24.5335L467.534 22.2395V17.6514L463.555 15.3574Z" fill="#CECECE"/>
<path d="M471.116 15.8162L474.697 17.86V21.9475L471.116 23.9913L467.534 21.9475V17.86L471.116 15.8162ZM471.116 15.3574L467.136 17.6514V22.2395L471.116 24.5335L475.095 22.2395V17.6514L471.116 15.3574Z" fill="#CECECE"/>
<path d="M478.677 15.8162L482.258 17.86V21.9475L478.677 23.9913L475.095 21.9475V17.86L478.677 15.8162ZM478.677 15.3574L474.697 17.6514V22.2395L478.677 24.5335L482.656 22.2395V17.6514L478.677 15.3574Z" fill="#CECECE"/>
<path d="M486.237 15.8162L489.819 17.86V21.9475L486.237 23.9913L482.656 21.9475V17.86L486.237 15.8162ZM486.237 15.3574L482.258 17.6514V22.2395L486.237 24.5335L490.217 22.2395V17.6514L486.237 15.3574Z" fill="#CECECE"/>
<path d="M493.798 15.8162L497.38 17.86V21.9475L493.798 23.9913L490.217 21.9475V17.86L493.798 15.8162ZM493.798 15.3574L489.819 17.6514V22.2395L493.798 24.5335L497.777 22.2395V17.6514L493.798 15.3574Z" fill="#CECECE"/>
<path d="M501.359 15.8162L504.94 17.86V21.9475L501.359 23.9913L497.777 21.9475V17.86L501.359 15.8162ZM501.359 15.3574L497.38 17.6514V22.2395L501.359 24.5335L505.338 22.2395V17.6514L501.359 15.3574Z" fill="#CECECE"/>
<path d="M508.92 15.8162L512.501 17.86V21.9475L508.92 23.9913L505.338 21.9475V17.86L508.92 15.8162ZM508.92 15.3574L504.94 17.6514V22.2395L508.92 24.5335L512.899 22.2395V17.6514L508.92 15.3574Z" fill="#CECECE"/>
<path d="M369.045 22.5318L372.626 24.5755V28.6631L369.045 30.7068L365.464 28.6631V24.5755L369.045 22.5318ZM369.045 22.0312L365.066 24.3253V28.9133L369.045 31.2073L373.024 28.9133V24.3253L369.045 22.0312Z" fill="#CECECE"/>
<path d="M376.606 22.5318L380.187 24.5755V28.6631L376.606 30.7068L373.024 28.6631V24.5755L376.606 22.5318ZM376.606 22.0312L372.626 24.3253V28.9133L376.606 31.2073L380.585 28.9133V24.3253L376.606 22.0312Z" fill="#CECECE"/>
<path d="M384.167 22.5318L387.748 24.5755V28.6631L384.167 30.7068L380.585 28.6631V24.5755L384.167 22.5318ZM384.167 22.0312L380.187 24.3253V28.9133L384.167 31.2073L388.146 28.9133V24.3253L384.167 22.0312Z" fill="#CECECE"/>
<path d="M391.727 22.5318L395.309 24.5755V28.6631L391.727 30.7068L388.146 28.6631V24.5755L391.727 22.5318ZM391.727 22.0312L387.748 24.3253V28.9133L391.727 31.2073L395.707 28.9133V24.3253L391.727 22.0312Z" fill="#CECECE"/>
<path d="M399.288 22.5318L402.87 24.5755V28.6631L399.288 30.7068L395.707 28.6631V24.5755L399.288 22.5318ZM399.288 22.0312L395.309 24.3253V28.9133L399.288 31.2073L403.268 28.9133V24.3253L399.288 22.0312Z" fill="#CECECE"/>
<path d="M406.849 22.5318L410.43 24.5755V28.6631L406.849 30.7068L403.268 28.6631V24.5755L406.849 22.5318ZM406.849 22.0312L402.87 24.3253V28.9133L406.849 31.2073L410.828 28.9133V24.3253L406.849 22.0312Z" fill="#CECECE"/>
<path d="M414.41 22.5318L417.991 24.5755V28.6631L414.41 30.7068L410.828 28.6631V24.5755L414.41 22.5318ZM414.41 22.0312L410.43 24.3253V28.9133L414.41 31.2073L418.389 28.9133V24.3253L414.41 22.0312Z" fill="#CECECE"/>
<path d="M421.971 22.5318L425.552 24.5755V28.6631L421.971 30.7068L418.389 28.6631V24.5755L421.971 22.5318ZM421.971 22.0312L417.991 24.3253V28.9133L421.971 31.2073L425.95 28.9133V24.3253L421.971 22.0312Z" fill="#CECECE"/>
<path d="M429.531 22.5318L433.113 24.5755V28.6631L429.531 30.7068L425.95 28.6631V24.5755L429.531 22.5318ZM429.531 22.0312L425.552 24.3253V28.9133L429.531 31.2073L433.511 28.9133V24.3253L429.531 22.0312Z" fill="#CECECE"/>
<path d="M437.092 22.5318L440.674 24.5755V28.6631L437.092 30.7068L433.511 28.6631V24.5755L437.092 22.5318ZM437.092 22.0312L433.113 24.3253V28.9133L437.092 31.2073L441.072 28.9133V24.3253L437.092 22.0312Z" fill="#CECECE"/>
<path d="M444.653 22.5318L448.234 24.5755V28.6631L444.653 30.7068L441.072 28.6631V24.5755L444.653 22.5318ZM444.653 22.0312L440.674 24.3253V28.9133L444.653 31.2073L448.632 28.9133V24.3253L444.653 22.0312Z" fill="#CECECE"/>
<path d="M452.214 22.5318L455.795 24.5755V28.6631L452.214 30.7068L448.632 28.6631V24.5755L452.214 22.5318ZM452.214 22.0312L448.234 24.3253V28.9133L452.214 31.2073L456.193 28.9133V24.3253L452.214 22.0312Z" fill="#CECECE"/>
<path d="M459.775 22.5318L463.356 24.5755V28.6631L459.775 30.7068L456.193 28.6631V24.5755L459.775 22.5318ZM459.775 22.0312L455.795 24.3253V28.9133L459.775 31.2073L463.754 28.9133V24.3253L459.775 22.0312Z" fill="#CECECE"/>
<path d="M467.335 22.5318L470.917 24.5755V28.6631L467.335 30.7068L463.754 28.6631V24.5755L467.335 22.5318ZM467.335 22.0312L463.356 24.3253V28.9133L467.335 31.2073L471.315 28.9133V24.3253L467.335 22.0312Z" fill="#CECECE"/>
<path d="M474.896 22.5318L478.478 24.5755V28.6631L474.896 30.7068L471.315 28.6631V24.5755L474.896 22.5318ZM474.896 22.0312L470.917 24.3253V28.9133L474.896 31.2073L478.875 28.9133V24.3253L474.896 22.0312Z" fill="#CECECE"/>
<path d="M482.457 22.5318L486.038 24.5755V28.6631L482.457 30.7068L478.875 28.6631V24.5755L482.457 22.5318ZM482.457 22.0312L478.477 24.3253V28.9133L482.457 31.2073L486.436 28.9133V24.3253L482.457 22.0312Z" fill="#CECECE"/>
<path d="M490.018 22.5318L493.599 24.5755V28.6631L490.018 30.7068L486.436 28.6631V24.5755L490.018 22.5318ZM490.018 22.0312L486.038 24.3253V28.9133L490.018 31.2073L493.997 28.9133V24.3253L490.018 22.0312Z" fill="#CECECE"/>
<path d="M497.578 22.5318L501.16 24.5755V28.6631L497.578 30.7068L493.997 28.6631V24.5755L497.578 22.5318ZM497.578 22.0312L493.599 24.3253V28.9133L497.578 31.2073L501.558 28.9133V24.3253L497.578 22.0312Z" fill="#CECECE"/>
<path d="M505.139 22.5318L508.721 24.5755V28.6631L505.139 30.7068L501.558 28.6631V24.5755L505.139 22.5318ZM505.139 22.0312L501.16 24.3253V28.9133L505.139 31.2073L509.119 28.9133V24.3253L505.139 22.0312Z" fill="#CECECE"/>
<path d="M512.7 22.5318L516.281 24.5755V28.6631L512.7 30.7068L509.119 28.6631V24.5755L512.7 22.5318ZM512.7 22.0312L508.721 24.3253V28.9133L512.7 31.2073L516.679 28.9133V24.3253L512.7 22.0312Z" fill="#CECECE"/>
<path d="M365.265 29.2886L368.846 31.3324V35.4199L365.265 37.4637L361.683 35.4199V31.3324L365.265 29.2886ZM365.265 28.7881L361.285 31.0821V35.6702L365.265 37.9642L369.244 35.6702V31.0821L365.265 28.7881Z" fill="#CECECE"/>
<path d="M372.825 29.2886L376.407 31.3324V35.4199L372.825 37.4637L369.244 35.4199V31.3324L372.825 29.2886ZM372.825 28.7881L368.846 31.0821V35.6702L372.825 37.9642L376.805 35.6702V31.0821L372.825 28.7881Z" fill="#CECECE"/>
<path d="M380.386 29.2886L383.968 31.3324V35.4199L380.386 37.4637L376.805 35.4199V31.3324L380.386 29.2886ZM380.386 28.7881L376.407 31.0821V35.6702L380.386 37.9642L384.366 35.6702V31.0821L380.386 28.7881Z" fill="#CECECE"/>
<path d="M387.947 29.2886L391.528 31.3324V35.4199L387.947 37.4637L384.366 35.4199V31.3324L387.947 29.2886ZM387.947 28.7881L383.968 31.0821V35.6702L387.947 37.9642L391.926 35.6702V31.0821L387.947 28.7881Z" fill="#CECECE"/>
<path d="M395.508 29.2886L399.089 31.3324V35.4199L395.508 37.4637L391.926 35.4199V31.3324L395.508 29.2886ZM395.508 28.7881L391.528 31.0821V35.6702L395.508 37.9642L399.487 35.6702V31.0821L395.508 28.7881Z" fill="#CECECE"/>
<path d="M403.069 29.2886L406.65 31.3324V35.4199L403.069 37.4637L399.487 35.4199V31.3324L403.069 29.2886ZM403.069 28.7881L399.089 31.0821V35.6702L403.069 37.9642L407.048 35.6702V31.0821L403.069 28.7881Z" fill="#CECECE"/>
<path d="M410.629 29.2886L414.211 31.3324V35.4199L410.629 37.4637L407.048 35.4199V31.3324L410.629 29.2886ZM410.629 28.7881L406.65 31.0821V35.6702L410.629 37.9642L414.609 35.6702V31.0821L410.629 28.7881Z" fill="#CECECE"/>
<path d="M418.19 29.2886L421.772 31.3324V35.4199L418.19 37.4637L414.609 35.4199V31.3324L418.19 29.2886ZM418.19 28.7881L414.211 31.0821V35.6702L418.19 37.9642L422.17 35.6702V31.0821L418.19 28.7881Z" fill="#CECECE"/>
<path d="M425.751 29.2886L429.332 31.3324V35.4199L425.751 37.4637L422.17 35.4199V31.3324L425.751 29.2886ZM425.751 28.7881L421.772 31.0821V35.6702L425.751 37.9642L429.73 35.6702V31.0821L425.751 28.7881Z" fill="#CECECE"/>
<path d="M433.312 29.2886L436.893 31.3324V35.4199L433.312 37.4637L429.73 35.4199V31.3324L433.312 29.2886ZM433.312 28.7881L429.332 31.0821V35.6702L433.312 37.9642L437.291 35.6702V31.0821L433.312 28.7881Z" fill="#CECECE"/>
<path d="M440.873 29.2886L444.454 31.3324V35.4199L440.873 37.4637L437.291 35.4199V31.3324L440.873 29.2886ZM440.873 28.7881L436.893 31.0821V35.6702L440.873 37.9642L444.852 35.6702V31.0821L440.873 28.7881Z" fill="#CECECE"/>
<path d="M448.433 29.2886L452.015 31.3324V35.4199L448.433 37.4637L444.852 35.4199V31.3324L448.433 29.2886ZM448.433 28.7881L444.454 31.0821V35.6702L448.433 37.9642L452.413 35.6702V31.0821L448.433 28.7881Z" fill="#CECECE"/>
<path d="M455.994 29.2886L459.576 31.3324V35.4199L455.994 37.4637L452.413 35.4199V31.3324L455.994 29.2886ZM455.994 28.7881L452.015 31.0821V35.6702L455.994 37.9642L459.973 35.6702V31.0821L455.994 28.7881Z" fill="#CECECE"/>
<path d="M463.555 29.2886L467.136 31.3324V35.4199L463.555 37.4637L459.973 35.4199V31.3324L463.555 29.2886ZM463.555 28.7881L459.576 31.0821V35.6702L463.555 37.9642L467.534 35.6702V31.0821L463.555 28.7881Z" fill="#CECECE"/>
<path d="M471.116 29.2886L474.697 31.3324V35.4199L471.116 37.4637L467.534 35.4199V31.3324L471.116 29.2886ZM471.116 28.7881L467.136 31.0821V35.6702L471.116 37.9642L475.095 35.6702V31.0821L471.116 28.7881Z" fill="#CECECE"/>
<path d="M478.677 29.2886L482.258 31.3324V35.4199L478.677 37.4637L475.095 35.4199V31.3324L478.677 29.2886ZM478.677 28.7881L474.697 31.0821V35.6702L478.677 37.9642L482.656 35.6702V31.0821L478.677 28.7881Z" fill="#CECECE"/>
<path d="M486.237 29.2886L489.819 31.3324V35.4199L486.237 37.4637L482.656 35.4199V31.3324L486.237 29.2886ZM486.237 28.7881L482.258 31.0821V35.6702L486.237 37.9642L490.217 35.6702V31.0821L486.237 28.7881Z" fill="#CECECE"/>
<path d="M493.798 29.2886L497.38 31.3324V35.4199L493.798 37.4637L490.217 35.4199V31.3324L493.798 29.2886ZM493.798 28.7881L489.819 31.0821V35.6702L493.798 37.9642L497.777 35.6702V31.0821L493.798 28.7881Z" fill="#CECECE"/>
<path d="M501.359 29.2886L504.94 31.3324V35.4199L501.359 37.4637L497.777 35.4199V31.3324L501.359 29.2886ZM501.359 28.7881L497.38 31.0821V35.6702L501.359 37.9642L505.338 35.6702V31.0821L501.359 28.7881Z" fill="#CECECE"/>
<path d="M508.92 29.2886L512.501 31.3324V35.4199L508.92 37.4637L505.338 35.4199V31.3324L508.92 29.2886ZM508.92 28.7881L504.94 31.0821V35.6702L508.92 37.9642L512.899 35.6702V31.0821L508.92 28.7881Z" fill="#CECECE"/>
<path d="M369.045 35.9617L372.626 38.0055V42.093L369.045 44.1368L365.464 42.093V38.0055L369.045 35.9617ZM369.045 35.5029L365.066 37.797V42.385L369.045 44.679L373.024 42.385V37.797L369.045 35.5029Z" fill="#CECECE"/>
<path d="M376.606 35.9617L380.187 38.0055V42.093L376.606 44.1368L373.024 42.093V38.0055L376.606 35.9617ZM376.606 35.5029L372.626 37.797V42.385L376.606 44.679L380.585 42.385V37.797L376.606 35.5029Z" fill="#CECECE"/>
<path d="M384.167 35.9617L387.748 38.0055V42.093L384.167 44.1368L380.585 42.093V38.0055L384.167 35.9617ZM384.167 35.5029L380.187 37.797V42.385L384.167 44.679L388.146 42.385V37.797L384.167 35.5029Z" fill="#CECECE"/>
<path d="M391.727 35.9617L395.309 38.0055V42.093L391.727 44.1368L388.146 42.093V38.0055L391.727 35.9617ZM391.727 35.5029L387.748 37.797V42.385L391.727 44.679L395.707 42.385V37.797L391.727 35.5029Z" fill="#CECECE"/>
<path d="M399.288 35.9617L402.87 38.0055V42.093L399.288 44.1368L395.707 42.093V38.0055L399.288 35.9617ZM399.288 35.5029L395.309 37.797V42.385L399.288 44.679L403.268 42.385V37.797L399.288 35.5029Z" fill="#CECECE"/>
<path d="M406.849 35.9617L410.43 38.0055V42.093L406.849 44.1368L403.268 42.093V38.0055L406.849 35.9617ZM406.849 35.5029L402.87 37.797V42.385L406.849 44.679L410.828 42.385V37.797L406.849 35.5029Z" fill="#CECECE"/>
<path d="M414.41 35.9617L417.991 38.0055V42.093L414.41 44.1368L410.828 42.093V38.0055L414.41 35.9617ZM414.41 35.5029L410.43 37.797V42.385L414.41 44.679L418.389 42.385V37.797L414.41 35.5029Z" fill="#CECECE"/>
<path d="M421.971 35.9617L425.552 38.0055V42.093L421.971 44.1368L418.389 42.093V38.0055L421.971 35.9617ZM421.971 35.5029L417.991 37.797V42.385L421.971 44.679L425.95 42.385V37.797L421.971 35.5029Z" fill="#CECECE"/>
<path d="M429.531 35.9617L433.113 38.0055V42.093L429.531 44.1368L425.95 42.093V38.0055L429.531 35.9617ZM429.531 35.5029L425.552 37.797V42.385L429.531 44.679L433.511 42.385V37.797L429.531 35.5029Z" fill="#CECECE"/>
<path d="M437.092 35.9617L440.674 38.0055V42.093L437.092 44.1368L433.511 42.093V38.0055L437.092 35.9617ZM437.092 35.5029L433.113 37.797V42.385L437.092 44.679L441.072 42.385V37.797L437.092 35.5029Z" fill="#CECECE"/>
<path d="M444.653 35.9617L448.234 38.0055V42.093L444.653 44.1368L441.072 42.093V38.0055L444.653 35.9617ZM444.653 35.5029L440.674 37.797V42.385L444.653 44.679L448.632 42.385V37.797L444.653 35.5029Z" fill="#CECECE"/>
<path d="M452.214 35.9617L455.795 38.0055V42.093L452.214 44.1368L448.632 42.093V38.0055L452.214 35.9617ZM452.214 35.5029L448.234 37.797V42.385L452.214 44.679L456.193 42.385V37.797L452.214 35.5029Z" fill="#CECECE"/>
<path d="M459.775 35.9617L463.356 38.0055V42.093L459.775 44.1368L456.193 42.093V38.0055L459.775 35.9617ZM459.775 35.5029L455.795 37.797V42.385L459.775 44.679L463.754 42.385V37.797L459.775 35.5029Z" fill="#CECECE"/>
<path d="M467.335 35.9617L470.917 38.0055V42.093L467.335 44.1368L463.754 42.093V38.0055L467.335 35.9617ZM467.335 35.5029L463.356 37.797V42.385L467.335 44.679L471.315 42.385V37.797L467.335 35.5029Z" fill="#CECECE"/>
<path d="M474.896 35.9617L478.478 38.0055V42.093L474.896 44.1368L471.315 42.093V38.0055L474.896 35.9617ZM474.896 35.5029L470.917 37.797V42.385L474.896 44.679L478.875 42.385V37.797L474.896 35.5029Z" fill="#CECECE"/>
<path d="M482.457 35.9617L486.038 38.0055V42.093L482.457 44.1368L478.875 42.093V38.0055L482.457 35.9617ZM482.457 35.5029L478.477 37.797V42.385L482.457 44.679L486.436 42.385V37.797L482.457 35.5029Z" fill="#CECECE"/>
<path d="M490.018 35.9617L493.599 38.0055V42.093L490.018 44.1368L486.436 42.093V38.0055L490.018 35.9617ZM490.018 35.5029L486.038 37.797V42.385L490.018 44.679L493.997 42.385V37.797L490.018 35.5029Z" fill="#CECECE"/>
<path d="M497.578 35.9617L501.16 38.0055V42.093L497.578 44.1368L493.997 42.093V38.0055L497.578 35.9617ZM497.578 35.5029L493.599 37.797V42.385L497.578 44.679L501.558 42.385V37.797L497.578 35.5029Z" fill="#CECECE"/>
<path d="M505.139 35.9617L508.721 38.0055V42.093L505.139 44.1368L501.558 42.093V38.0055L505.139 35.9617ZM505.139 35.5029L501.16 37.797V42.385L505.139 44.679L509.119 42.385V37.797L505.139 35.5029Z" fill="#CECECE"/>
<path d="M512.7 35.9617L516.281 38.0055V42.093L512.7 44.1368L509.119 42.093V38.0055L512.7 35.9617ZM512.7 35.5029L508.721 37.797V42.385L512.7 44.679L516.679 42.385V37.797L512.7 35.5029Z" fill="#CECECE"/>
<path d="M365.265 42.7191L368.846 44.7628V48.8504L365.265 50.8941L361.683 48.8504V44.8045L365.265 42.7191ZM365.265 42.2603L361.285 44.5543V49.1423L365.265 51.4363L369.244 49.1423V44.5543L365.265 42.2603Z" fill="#CECECE"/>
<path d="M372.825 42.7191L376.407 44.7628V48.8504L372.825 50.8941L369.244 48.8504V44.8045L372.825 42.7191ZM372.825 42.2603L368.846 44.5543V49.1423L372.825 51.4363L376.805 49.1423V44.5543L372.825 42.2603Z" fill="#CECECE"/>
<path d="M380.386 42.7191L383.968 44.7628V48.8504L380.386 50.8941L376.805 48.8504V44.8045L380.386 42.7191ZM380.386 42.2603L376.407 44.5543V49.1423L380.386 51.4363L384.366 49.1423V44.5543L380.386 42.2603Z" fill="#CECECE"/>
<path d="M387.947 42.7191L391.528 44.7628V48.8504L387.947 50.8941L384.366 48.8504V44.8045L387.947 42.7191ZM387.947 42.2603L383.968 44.5543V49.1423L387.947 51.4363L391.926 49.1423V44.5543L387.947 42.2603Z" fill="#CECECE"/>
<path d="M395.508 42.7191L399.089 44.7628V48.8504L395.508 50.8941L391.926 48.8504V44.8045L395.508 42.7191ZM395.508 42.2603L391.528 44.5543V49.1423L395.508 51.4363L399.487 49.1423V44.5543L395.508 42.2603Z" fill="#CECECE"/>
<path d="M403.069 42.7191L406.65 44.7628V48.8504L403.069 50.8941L399.487 48.8504V44.8045L403.069 42.7191ZM403.069 42.2603L399.089 44.5543V49.1423L403.069 51.4363L407.048 49.1423V44.5543L403.069 42.2603Z" fill="#CECECE"/>
<path d="M410.629 42.7191L414.211 44.7628V48.8504L410.629 50.8941L407.048 48.8504V44.8045L410.629 42.7191ZM410.629 42.2603L406.65 44.5543V49.1423L410.629 51.4363L414.609 49.1423V44.5543L410.629 42.2603Z" fill="#CECECE"/>
<path d="M418.19 42.7191L421.772 44.7628V48.8504L418.19 50.8941L414.609 48.8504V44.8045L418.19 42.7191ZM418.19 42.2603L414.211 44.5543V49.1423L418.19 51.4363L422.17 49.1423V44.5543L418.19 42.2603Z" fill="#CECECE"/>
<path d="M425.751 42.7191L429.332 44.7628V48.8504L425.751 50.8941L422.17 48.8504V44.8045L425.751 42.7191ZM425.751 42.2603L421.772 44.5543V49.1423L425.751 51.4363L429.73 49.1423V44.5543L425.751 42.2603Z" fill="#CECECE"/>
<path d="M433.312 42.7191L436.893 44.7628V48.8504L433.312 50.8941L429.73 48.8504V44.8045L433.312 42.7191ZM433.312 42.2603L429.332 44.5543V49.1423L433.312 51.4363L437.291 49.1423V44.5543L433.312 42.2603Z" fill="#CECECE"/>
<path d="M440.873 42.7191L444.454 44.7628V48.8504L440.873 50.8941L437.291 48.8504V44.8045L440.873 42.7191ZM440.873 42.2603L436.893 44.5543V49.1423L440.873 51.4363L444.852 49.1423V44.5543L440.873 42.2603Z" fill="#CECECE"/>
<path d="M448.433 42.7191L452.015 44.7628V48.8504L448.433 50.8941L444.852 48.8504V44.8045L448.433 42.7191ZM448.433 42.2603L444.454 44.5543V49.1423L448.433 51.4363L452.413 49.1423V44.5543L448.433 42.2603Z" fill="#CECECE"/>
<path d="M455.994 42.7191L459.576 44.7628V48.8504L455.994 50.8941L452.413 48.8504V44.8045L455.994 42.7191ZM455.994 42.2603L452.015 44.5543V49.1423L455.994 51.4363L459.973 49.1423V44.5543L455.994 42.2603Z" fill="#CECECE"/>
<path d="M463.555 42.7191L467.136 44.7628V48.8504L463.555 50.8941L459.973 48.8504V44.8045L463.555 42.7191ZM463.555 42.2603L459.576 44.5543V49.1423L463.555 51.4363L467.534 49.1423V44.5543L463.555 42.2603Z" fill="#CECECE"/>
<path d="M471.116 42.7191L474.697 44.7628V48.8504L471.116 50.8941L467.534 48.8504V44.8045L471.116 42.7191ZM471.116 42.2603L467.136 44.5543V49.1423L471.116 51.4363L475.095 49.1423V44.5543L471.116 42.2603Z" fill="#CECECE"/>
<path d="M478.677 42.7191L482.258 44.7628V48.8504L478.677 50.8941L475.095 48.8504V44.8045L478.677 42.7191ZM478.677 42.2603L474.697 44.5543V49.1423L478.677 51.4363L482.656 49.1423V44.5543L478.677 42.2603Z" fill="#CECECE"/>
<path d="M486.237 42.7191L489.819 44.7628V48.8504L486.237 50.8941L482.656 48.8504V44.8045L486.237 42.7191ZM486.237 42.2603L482.258 44.5543V49.1423L486.237 51.4363L490.217 49.1423V44.5543L486.237 42.2603Z" fill="#CECECE"/>
<path d="M493.798 42.7191L497.38 44.7628V48.8504L493.798 50.8941L490.217 48.8504V44.8045L493.798 42.7191ZM493.798 42.2603L489.819 44.5543V49.1423L493.798 51.4363L497.777 49.1423V44.5543L493.798 42.2603Z" fill="#CECECE"/>
<path d="M501.359 42.7191L504.94 44.7628V48.8504L501.359 50.8941L497.777 48.8504V44.8045L501.359 42.7191ZM501.359 42.2603L497.38 44.5543V49.1423L501.359 51.4363L505.338 49.1423V44.5543L501.359 42.2603Z" fill="#CECECE"/>
<path d="M508.92 42.7191L512.501 44.7628V48.8504L508.92 50.8941L505.338 48.8504V44.8045L508.92 42.7191ZM508.92 42.2603L504.94 44.5543V49.1423L508.92 51.4363L512.899 49.1423V44.5543L508.92 42.2603Z" fill="#CECECE"/>
<path d="M369.045 49.4341L372.626 51.4779V55.5654L369.045 57.6092L365.464 55.5654V51.4779L369.045 49.4341ZM369.045 48.9336L365.066 51.2276V55.8157L369.045 58.1097L373.024 55.8157V51.2276L369.045 48.9336Z" fill="#CECECE"/>
<path d="M376.606 49.4341L380.187 51.4779V55.5654L376.606 57.6092L373.024 55.5654V51.4779L376.606 49.4341ZM376.606 48.9336L372.626 51.2276V55.8157L376.606 58.1097L380.585 55.8157V51.2276L376.606 48.9336Z" fill="#CECECE"/>
<path d="M384.167 49.4341L387.748 51.4779V55.5654L384.167 57.6092L380.585 55.5654V51.4779L384.167 49.4341ZM384.167 48.9336L380.187 51.2276V55.8157L384.167 58.1097L388.146 55.8157V51.2276L384.167 48.9336Z" fill="#CECECE"/>
<path d="M391.727 49.4341L395.309 51.4779V55.5654L391.727 57.6092L388.146 55.5654V51.4779L391.727 49.4341ZM391.727 48.9336L387.748 51.2276V55.8157L391.727 58.1097L395.707 55.8157V51.2276L391.727 48.9336Z" fill="#CECECE"/>
<path d="M399.288 49.4341L402.87 51.4779V55.5654L399.288 57.6092L395.707 55.5654V51.4779L399.288 49.4341ZM399.288 48.9336L395.309 51.2276V55.8157L399.288 58.1097L403.268 55.8157V51.2276L399.288 48.9336Z" fill="#CECECE"/>
<path d="M406.849 49.4341L410.43 51.4779V55.5654L406.849 57.6092L403.268 55.5654V51.4779L406.849 49.4341ZM406.849 48.9336L402.87 51.2276V55.8157L406.849 58.1097L410.828 55.8157V51.2276L406.849 48.9336Z" fill="#CECECE"/>
<path d="M414.41 49.4341L417.991 51.4779V55.5654L414.41 57.6092L410.828 55.5654V51.4779L414.41 49.4341ZM414.41 48.9336L410.43 51.2276V55.8157L414.41 58.1097L418.389 55.8157V51.2276L414.41 48.9336Z" fill="#CECECE"/>
<path d="M421.971 49.4341L425.552 51.4779V55.5654L421.971 57.6092L418.389 55.5654V51.4779L421.971 49.4341ZM421.971 48.9336L417.991 51.2276V55.8157L421.971 58.1097L425.95 55.8157V51.2276L421.971 48.9336Z" fill="#CECECE"/>
<path d="M429.531 49.4341L433.113 51.4779V55.5654L429.531 57.6092L425.95 55.5654V51.4779L429.531 49.4341ZM429.531 48.9336L425.552 51.2276V55.8157L429.531 58.1097L433.511 55.8157V51.2276L429.531 48.9336Z" fill="#CECECE"/>
<path d="M437.092 49.4341L440.674 51.4779V55.5654L437.092 57.6092L433.511 55.5654V51.4779L437.092 49.4341ZM437.092 48.9336L433.113 51.2276V55.8157L437.092 58.1097L441.072 55.8157V51.2276L437.092 48.9336Z" fill="#CECECE"/>
<path d="M444.653 49.4341L448.234 51.4779V55.5654L444.653 57.6092L441.072 55.5654V51.4779L444.653 49.4341ZM444.653 48.9336L440.674 51.2276V55.8157L444.653 58.1097L448.632 55.8157V51.2276L444.653 48.9336Z" fill="#CECECE"/>
<path d="M452.214 49.4341L455.795 51.4779V55.5654L452.214 57.6092L448.632 55.5654V51.4779L452.214 49.4341ZM452.214 48.9336L448.234 51.2276V55.8157L452.214 58.1097L456.193 55.8157V51.2276L452.214 48.9336Z" fill="#CECECE"/>
<path d="M459.775 49.4341L463.356 51.4779V55.5654L459.775 57.6092L456.193 55.5654V51.4779L459.775 49.4341ZM459.775 48.9336L455.795 51.2276V55.8157L459.775 58.1097L463.754 55.8157V51.2276L459.775 48.9336Z" fill="#CECECE"/>
<path d="M467.335 49.4341L470.917 51.4779V55.5654L467.335 57.6092L463.754 55.5654V51.4779L467.335 49.4341ZM467.335 48.9336L463.356 51.2276V55.8157L467.335 58.1097L471.315 55.8157V51.2276L467.335 48.9336Z" fill="#CECECE"/>
<path d="M474.896 49.4341L478.478 51.4779V55.5654L474.896 57.6092L471.315 55.5654V51.4779L474.896 49.4341ZM474.896 48.9336L470.917 51.2276V55.8157L474.896 58.1097L478.875 55.8157V51.2276L474.896 48.9336Z" fill="#CECECE"/>
<path d="M482.457 49.4341L486.038 51.4779V55.5654L482.457 57.6092L478.875 55.5654V51.4779L482.457 49.4341ZM482.457 48.9336L478.477 51.2276V55.8157L482.457 58.1097L486.436 55.8157V51.2276L482.457 48.9336Z" fill="#CECECE"/>
<path d="M490.018 49.4341L493.599 51.4779V55.5654L490.018 57.6092L486.436 55.5654V51.4779L490.018 49.4341ZM490.018 48.9336L486.038 51.2276V55.8157L490.018 58.1097L493.997 55.8157V51.2276L490.018 48.9336Z" fill="#CECECE"/>
<path d="M497.578 49.4341L501.16 51.4779V55.5654L497.578 57.6092L493.997 55.5654V51.4779L497.578 49.4341ZM497.578 48.9336L493.599 51.2276V55.8157L497.578 58.1097L501.558 55.8157V51.2276L497.578 48.9336Z" fill="#CECECE"/>
<path d="M505.139 49.4341L508.721 51.4779V55.5654L505.139 57.6092L501.558 55.5654V51.4779L505.139 49.4341ZM505.139 48.9336L501.16 51.2276V55.8157L505.139 58.1097L509.119 55.8157V51.2276L505.139 48.9336Z" fill="#CECECE"/>
<path d="M512.7 49.4341L516.281 51.4779V55.5654L512.7 57.6092L509.119 55.5654V51.4779L512.7 49.4341ZM512.7 48.9336L508.721 51.2276V55.8157L512.7 58.1097L516.679 55.8157V51.2276L512.7 48.9336Z" fill="#CECECE"/>
<path d="M361.285 58.301V0H515.234V58.301" stroke="white" stroke-width="3.92296"/>
<path d="M361.285 58.301V0H515.233V58.301" stroke="white" stroke-width="3.92296"/>
<path fill-rule="evenodd" clip-rule="evenodd" d="M670.739 58.4219L690.592 166.794H192.36L209.921 58.4366L670.739 58.4219Z" stroke="white" stroke-width="2.48603"/>
<path d="M337.576 167.323C402.736 206.751 470.978 206.751 542.303 167.323M562.688 58.4243L567.534 101.547H310.069L314.091 58.4243H562.688Z" stroke="white" stroke-width="2.48603"/>
<path d="M437.958 134.616C441.051 134.616 443.557 133.325 443.557 131.734C443.557 130.142 441.051 128.852 437.958 128.852C434.866 128.852 432.359 130.142 432.359 131.734C432.359 133.325 434.866 134.616 437.958 134.616Z" fill="white"/>
<path d="M925.771 578.993H-48.257V582.407H925.771V578.993Z" fill="white"/>
<path d="M439.233 592.194C446.461 592.194 452.32 587.095 452.32 580.806C452.32 574.517 446.461 569.418 439.233 569.418C432.006 569.418 426.147 574.517 426.147 580.806C426.147 587.095 432.006 592.194 439.233 592.194Z" fill="white"/>
<path d="M439.156 683.659C503.878 683.659 556.346 639.249 556.346 584.466C556.346 529.684 503.878 485.273 439.156 485.273C374.434 485.273 321.967 529.684 321.967 584.466C321.967 639.249 374.434 683.659 439.156 683.659Z" stroke="white" stroke-width="3.97765"/>
<path d="M101.402 66.1285C108.064 65.3591 112.005 63.0335 113.227 59.1516M777.603 65.9536C773.663 65.8023 771.152 65.3784 770.07 64.6816C766.518 62.3939 766.295 58.6704 766.295 58.6704" stroke="white" stroke-width="1.98883"/>
<path fill-rule="evenodd" clip-rule="evenodd" d="M101.975 57.1792L105.478 57.1787L-139.133 889.996L-142.628 890L101.975 57.1792Z" fill="white"/>
<path fill-rule="evenodd" clip-rule="evenodd" d="M773.515 57.1812H776.939L1015.16 889.995L1011.73 890.002L773.515 57.1812Z" fill="white"/>
<path fill-rule="evenodd" clip-rule="evenodd" d="M105.418 57.1812H774.26V59.6915H104.703L105.418 57.1812Z" fill="white"/>
</g>
<defs>
<clipPath id="clip0_24_3">
<rect width="1109.77" height="890" fill="white" transform="translate(-114.883)"/>
</clipPath>
</defs>
</svg>
